<svg width="1087" height="120" viewBox="0 0 1087 120" fill="none" xmlns="http://www.w3.org/2000/svg"><g clip-path="url(#clip0_248_700)"><path d="M58.6415 50.4313C59.4508 50.4313 60.0637 49.7259 60.0001 48.9223C59.6705 45.0199 58.0691 41.3025 55.4039 38.3945C50.3048 32.6768 42.0143 29.2022 30.0585 29.2831C18.1027 29.3641 10.9454 33.7001 8.04319 36.5214C3.40655 40.3717 1.42934 46.552 2.97296 52.3507C4.14079 56.1721 6.55159 59.4791 9.85852 61.728C14.7091 64.821 20.0221 67.174 25.5838 68.6945C28.538 69.5617 38.7016 71.8396 42.8526 74.9846C44.8067 76.3143 45.9977 78.4823 46.1307 80.8122C46.0497 82.4657 46.836 87.2121 38.8635 90.0855C37.0771 90.4902 26.7747 92.9588 18.5594 87.7267C15.8653 85.8824 12.8128 82.9108 12.304 79.6791C12.2 79.02 11.6392 78.5344 10.9743 78.5344H1.35996C0.608388 78.5344 -0.0333442 79.1472 0.00134386 79.9045C0.192128 84.096 1.93809 88.0447 4.89814 91.0047C10.5118 96.971 20.7274 100.573 32.9029 100.44C45.0727 100.307 55.0802 96.046 58.7918 88.2412C61.775 81.2747 59.7919 73.1982 53.9412 68.3997C50.1198 65.4974 45.8069 63.3005 41.1992 61.8957C37.6726 60.7856 23.4967 57.3168 20.0279 54.4955C17.8021 53.1947 16.4782 50.7839 16.5013 48.2054C16.2585 46.1184 18.0449 40.4527 25.3641 39.4467C32.1861 38.5564 45.1652 38.0419 46.4775 49.2692C46.5585 49.9341 47.1482 50.4255 47.8188 50.4255H58.6415V50.4313Z" fill="#002457"/><path d="M119.092 41.8223C119.068 41.7761 119.04 41.7356 119.011 41.6894C115.877 37.0527 109.668 30.2886 96.1454 30.2886H68.2794C67.5278 30.2886 66.9208 30.8956 66.9208 31.6472V98.9535C66.9208 99.7051 67.5278 100.312 68.2794 100.312H78.5471C79.2986 100.312 79.9057 99.7051 79.9057 98.9535V82.205C79.9057 81.4534 80.5127 80.8464 81.2643 80.8464H95.3303C99.9669 80.8984 104.546 80.089 108.888 78.4587C114.582 76.2097 119.028 71.6541 121.167 65.9074C124.058 57.9638 123.312 49.1531 119.092 41.8223ZM102.245 68.6189C99.5622 69.8445 92.2026 69.6422 81.2701 69.6017C80.5185 69.6017 79.9057 68.9946 79.9057 68.2431V42.9555C79.9057 42.2039 80.5127 41.5969 81.2643 41.5969H95.3592C102.054 41.1344 108.072 45.719 109.431 52.3039C110.57 59.1086 108.778 65.9652 102.274 68.6478L102.245 68.6189Z" fill="#002457"/><path d="M166.671 100.312H177.494C178.436 100.312 179.089 99.3814 178.771 98.4968L154.698 31.1905C154.507 30.647 153.992 30.2886 153.42 30.2886H143.355C142.782 30.2886 142.268 30.647 142.077 31.1905L118.004 98.4968C117.686 99.3814 118.345 100.312 119.281 100.312H130.133C130.723 100.312 131.243 99.9306 131.428 99.3698L135.833 85.6912C136.013 85.1304 136.539 84.7488 137.128 84.7488H159.681C160.271 84.7488 160.791 85.1304 160.976 85.6912L165.382 99.3698C165.561 99.9306 166.087 100.312 166.677 100.312H166.671ZM140.447 71.2898L147.09 50.7198C147.494 49.4653 149.269 49.4653 149.674 50.7198L156.317 71.2898C156.6 72.1686 155.947 73.0647 155.022 73.0647H141.73C140.805 73.0647 140.152 72.1628 140.435 71.2898H140.447Z" fill="#002457"/><path d="M241.009 98.3589L230.892 78.5752C230.562 77.9335 230.805 77.1703 231.418 76.7888C235.511 74.2623 238.639 70.4409 240.31 65.9372C243.2 57.9936 242.431 49.1597 238.234 41.8521C238.205 41.8059 238.182 41.7654 238.153 41.7192C235.02 37.0825 228.811 30.3184 215.288 30.3184H187.422C186.67 30.3184 186.063 30.9254 186.063 31.677V98.9833C186.063 99.7349 186.67 100.342 187.422 100.342H197.69C198.441 100.342 199.048 99.7349 199.048 98.9833V82.2348C199.048 81.4832 199.655 80.8762 200.407 80.8762H214.473C214.473 80.8762 215.375 80.8762 216.774 80.8126C217.317 80.7894 217.826 81.0901 218.063 81.5757L226.758 99.5672C226.984 100.036 227.458 100.336 227.984 100.336H239.795C240.813 100.336 241.466 99.2608 241.003 98.3589H241.009ZM199.025 69.5736V42.9275C199.025 42.1759 199.632 41.5688 200.384 41.5688H214.479C221.173 41.1063 227.192 45.6909 228.522 52.2759C229.66 59.0805 227.868 65.9372 221.335 68.6197C218.543 69.8916 210.68 69.6199 198.996 69.5968L199.025 69.5679V69.5736Z" fill="#002457"/><path d="M301.557 30.2895H288.22C287.792 30.2895 287.387 30.4918 287.127 30.8387L264.99 60.5374C264.21 61.5839 262.539 61.0346 262.539 59.7223V31.6481C262.539 30.8965 261.932 30.2895 261.181 30.2895H250.017C249.265 30.2895 248.658 30.8965 248.658 31.6481V98.9776C248.658 99.7291 249.265 100.336 250.017 100.336H261.181C261.932 100.336 262.539 99.7291 262.539 98.9776V82.7089C262.539 82.3967 262.643 82.096 262.84 81.8532L269.697 73.3489C270.28 72.6262 271.402 72.6898 271.905 73.4761L288.515 99.706C288.763 100.099 289.197 100.336 289.665 100.336H301.887C302.968 100.336 303.616 99.1394 303.026 98.2318L279.675 62.4511C279.351 61.9596 279.386 61.3121 279.756 60.8554L302.615 32.4979C303.332 31.6076 302.702 30.2837 301.557 30.2837V30.2895Z" fill="#002457"/><path d="M378.298 31.6472V62.2998C378.298 63.0514 377.691 63.6585 376.939 63.6585H346.177C345.425 63.6585 344.818 63.0514 344.818 62.2998V31.6472C344.818 30.8956 344.211 30.2886 343.459 30.2886H332.215C331.463 30.2886 330.856 30.8956 330.856 31.6472V98.9767C330.856 99.7282 331.463 100.335 332.215 100.335H343.459C344.211 100.335 344.818 99.7282 344.818 98.9767V76.5393C344.818 75.7877 345.425 75.1807 346.177 75.1807H376.939C377.691 75.1807 378.298 75.7877 378.298 76.5393V98.9767C378.298 99.7282 378.905 100.335 379.656 100.335H390.901C391.652 100.335 392.26 99.7282 392.26 98.9767V31.6472C392.26 30.8956 391.652 30.2886 390.901 30.2886H379.656C378.905 30.2886 378.298 30.8956 378.298 31.6472Z" fill="#002457"/><path d="M415.027 30.2886H403.782C403.031 30.2886 402.423 30.8969 402.423 31.6472V98.9824C402.423 99.7328 403.031 100.341 403.782 100.341H415.027C415.777 100.341 416.385 99.7328 416.385 98.9824V31.6472C416.385 30.8969 415.777 30.2886 415.027 30.2886Z" fill="#002457"/><path d="M471.429 78.5752C471.099 77.9335 471.342 77.1703 471.955 76.7888C476.048 74.2623 479.176 70.4409 480.847 65.9372C483.737 57.9936 482.968 49.1597 478.771 41.8521C478.742 41.8059 478.719 41.7596 478.684 41.7192C475.551 37.1114 469.336 30.3184 455.825 30.3184H427.959C427.207 30.3184 426.6 30.9254 426.6 31.677V98.9833C426.6 99.7349 427.207 100.342 427.959 100.342H438.227C438.978 100.342 439.585 99.7349 439.585 98.9833V82.2348C439.585 81.4832 440.192 80.8762 440.944 80.8762H455.01C455.01 80.8762 455.912 80.8762 457.311 80.8126C457.854 80.7894 458.363 81.0901 458.6 81.5757L467.295 99.5672C467.521 100.036 467.995 100.336 468.521 100.336H480.355C481.373 100.336 482.026 99.2608 481.564 98.3589L471.423 78.5752H471.429ZM439.591 69.5736V42.9275C439.591 42.1759 440.198 41.5688 440.95 41.5688H455.045C461.739 41.1063 467.758 45.6909 469.087 52.2759C470.226 59.0805 468.434 65.9372 461.901 68.6197C459.109 69.8916 451.246 69.6199 439.562 69.5968L439.591 69.5679V69.5736Z" fill="#002457"/><path d="M540.787 31.653V40.2614C540.787 41.013 540.18 41.62 539.429 41.62H504.463C503.712 41.62 503.105 42.227 503.105 42.9786V58.4495C503.105 59.2011 503.712 59.8081 504.463 59.8081H534.682C535.434 59.8081 536.041 60.4151 536.041 61.1667V69.7809C536.041 70.5325 535.434 71.1395 534.682 71.1395H504.463C503.712 71.1395 503.105 71.7466 503.105 72.4981V87.6452C503.105 88.3968 503.712 89.0039 504.463 89.0039H539.429C540.18 89.0039 540.787 89.6109 540.787 90.3625V98.9478C540.787 99.6993 540.18 100.306 539.429 100.306H490.53C489.779 100.306 489.172 99.6993 489.172 98.9478V31.8033C489.172 31.0517 489.779 30.4447 490.524 30.4447L539.423 30.2886C540.175 30.2886 540.787 30.8956 540.787 31.6472V31.653Z" fill="#002457"/><g clip-path="url(#clip1_248_700)"><path d="M583.579 95.0355C595.435 96.859 604.112 82.1113 594.171 69.7466C587.831 61.8582 580.872 50.058 584.654 33.1471C584.868 32.1779 583.689 31.5384 583 32.2528C572.039 43.6284 567.028 63.7266 568.447 74.7025C570.345 89.3803 577.01 94.0264 583.574 95.0355H583.579Z" fill="url(#paint0_linear_248_700)"/><path d="M666.526 74.8815C666.526 59.7691 658.987 47.2945 650.744 40.2504C641.891 32.6817 625.315 21.4111 634.063 3.88566C634.637 2.73163 633.983 1.33279 632.714 1.083C610.517 -3.25838 590.484 17.2745 590.484 36.6334C590.339 63.6759 609.323 61.8973 609.898 83.919C610.173 94.5401 599.397 108.449 580.832 103.937C579.893 103.708 579.223 104.817 579.873 105.536C585.888 112.255 600.576 119.504 617.856 119.504C653.806 119.504 665.991 92.2321 666.531 74.8815H666.526Z" fill="url(#paint1_linear_248_700)"/><path d="M695.499 101.062V18.0884H734.478C742.646 18.0884 748.934 20.3679 753.341 24.9269C757.786 29.4478 760.008 35.5265 760.008 43.1628C760.008 50.913 757.71 57.1626 753.113 61.9116C748.554 66.6225 742.285 68.978 734.307 68.978H710.201V101.062H695.499ZM710.201 58.9483H731.629C736.454 58.9483 739.911 57.5426 742 54.7312C744.128 51.9198 745.192 48.3106 745.192 43.9036C745.192 39.3826 744.128 35.7544 742 33.019C739.873 30.2837 736.416 28.916 731.629 28.916H710.201V58.9483ZM748.668 101.062L728.608 64.1911L742.228 61.5127L764.909 101.062H748.668Z" fill="#6A2BC7"/><path d="M768.385 75.2466V73.9929C768.385 65.8247 771.216 59.2902 776.876 54.3893C782.537 49.4504 790.079 46.9809 799.5 46.9809C808.808 46.9809 815.97 49.3364 820.985 54.0473C826 58.7203 828.507 65.0839 828.507 73.1381V77.2982H776.022V69.3199H814.773V69.035C814.773 65.9197 813.576 63.2033 811.183 60.8858C808.827 58.5303 804.914 57.3526 799.443 57.3526C793.859 57.3526 789.661 58.8153 786.849 61.7406C784.038 64.628 782.632 68.3132 782.632 72.7962V75.4746C782.632 80.7174 784.095 84.8395 787.02 87.8408C789.984 90.8041 794.201 92.2858 799.671 92.2858C804.344 92.2858 808.03 91.621 810.727 90.2913C813.462 88.9236 815.476 87.3089 816.768 85.4473L827.994 89.6644C826.094 93.4256 822.903 96.5219 818.42 98.9533C813.937 101.347 807.726 102.544 799.785 102.544C789.984 102.544 782.29 100.112 776.706 95.2492C771.159 90.3862 768.385 83.7187 768.385 75.2466Z" fill="#6A2BC7"/><path d="M837.054 75.3036V73.9929C837.054 65.5968 839.809 59.0052 845.317 54.2183C850.826 49.3934 858.348 46.9809 867.884 46.9809C876.85 46.9809 883.784 48.7855 888.685 52.3947C893.624 55.9659 896.245 61.0188 896.549 67.5533L896.606 68.6931H882.872L882.815 67.9522C882.587 64.609 881.238 62.0446 878.769 60.259C876.299 58.4354 872.804 57.5236 868.283 57.5236C862.812 57.5236 858.652 58.9483 855.803 61.7976C852.954 64.647 851.529 68.6741 851.529 73.8789V75.6455C851.529 80.7744 852.897 84.8205 855.632 87.7838C858.405 90.7472 862.585 92.2288 868.169 92.2288C872.918 92.2288 876.565 91.317 879.111 89.4934C881.656 87.6318 882.986 85.0104 883.1 81.6292V80.8314H896.663L896.606 82.0281C896.378 88.4867 893.795 93.5205 888.856 97.1297C883.917 100.739 876.945 102.544 867.941 102.544C858.329 102.544 850.769 100.15 845.26 95.3631C839.79 90.5382 837.054 83.8517 837.054 75.3036Z" fill="#6A2BC7"/><path d="M905.42 101.062V48.6905H911.923C916.231 48.6905 919.724 52.1833 919.724 56.4919V58.4924H919.781C921.491 55.491 923.998 52.8696 927.303 50.6281C930.647 48.3486 934.503 47.2089 938.872 47.2089C940.771 47.2089 942.348 47.3418 943.602 47.6078C944.893 47.8357 945.9 48.1207 946.622 48.4626V59.6321C945.71 59.2142 944.589 58.8913 943.26 58.6633C941.968 58.4354 940.353 58.3214 938.416 58.3214C934.579 58.3214 931.008 59.4042 927.702 61.5697C924.397 63.6972 921.833 66.4516 920.009 69.8328V101.062H905.42Z" fill="#6A2BC7"/><path d="M951.83 82.256V48.6905H966.077V80.1475C966.077 84.0986 967.007 87.043 968.869 88.9805C970.731 90.9181 973.485 91.8869 977.132 91.8869C980.817 91.8869 984.028 90.9751 986.763 89.1515C989.536 87.2899 991.607 85.0674 992.975 82.484V48.6905H1007.22V101.062H993.26L993.203 92.5137H993.146C991.55 95.0972 988.91 97.4527 985.224 99.5802C981.577 101.67 977.189 102.714 972.06 102.714C965.792 102.714 960.853 101.043 957.244 97.6996C953.634 94.3184 951.83 89.1705 951.83 82.256Z" fill="#6A2BC7"/><path d="M1019.74 101.062V48.6905H1034.15V101.062H1019.74ZM1018.48 29.7138C1018.48 27.5103 1019.22 25.6487 1020.71 24.129C1022.19 22.6094 1024.47 21.7104 1027.17 21.7104C1029.9 21.7104 1031.8 22.5904 1033.24 24.072C1034.69 25.5537 1035.41 27.4343 1035.41 29.7138C1035.41 31.8793 1034.67 33.7599 1033.19 35.3555C1031.7 36.9132 1029.6 37.692 1026.86 37.692C1024.16 37.692 1022.09 36.9132 1020.65 35.3555C1019.21 33.7599 1018.48 31.8793 1018.48 29.7138Z" fill="#6A2BC7"/><path d="M1044.3 59.4042V48.6905H1086.07V59.4042H1044.3ZM1055.69 84.5925V51.198L1056.15 50.5711V30.1697H1060.74C1065.66 30.1697 1069.66 34.1614 1069.66 39.0855V81.1163C1069.66 85.1434 1070.38 87.9168 1071.82 89.4364C1073.26 90.9561 1075.41 91.7159 1078.26 91.7159C1080.05 91.7159 1081.47 91.602 1082.53 91.374C1083.6 91.1081 1084.59 90.8231 1085.5 90.5192L1086.13 100.492C1085.02 100.872 1083.52 101.252 1081.62 101.632C1079.72 102.012 1076.99 102.202 1073.42 102.202C1068.02 102.202 1063.71 100.796 1060.48 97.9845C1057.29 95.1732 1055.69 90.7092 1055.69 84.5925Z" fill="#6A2BC7"/></g></g><defs><linearGradient id="paint0_linear_248_700" x1="583.29" y1="93.4637" x2="583.29" y2="38.8948" gradientUnits="userSpaceOnUse"><stop offset="0.03" stop-color="#6A2BC7"/><stop offset="1" stop-color="#A379E2"/></linearGradient><linearGradient id="paint1_linear_248_700" x1="622.872" y1="116.257" x2="622.872" y2="13.569" gradientUnits="userSpaceOnUse"><stop offset="0.03" stop-color="#6A2BC7"/><stop offset="1" stop-color="#A379E2"/></linearGradient><clipPath id="clip0_248_700"><rect width="1087" height="120" fill="white"/></clipPath><clipPath id="clip1_248_700"><rect width="518.678" height="120" fill="white" transform="translate(568.104)"/></clipPath></defs></svg>